<svg xmlns="http://www.w3.org/2000/svg" width="19.001" height="22" viewBox="0 0 19.001 22"><defs><style>.a{fill:#f29d35;}</style></defs><path class="a" d="M-7638.846-3318l-3.69-8.14,1.608-1.469a3.587,3.587,0,0,0,1.2-2.668,3.855,3.855,0,0,0-3.966-3.722,3.856,3.856,0,0,0-3.968,3.722,3.586,3.586,0,0,0,1.225,2.689l1.642,1.476-3.723,8.112h9.67m4.654,3h-19l4.753-10.357a6.6,6.6,0,0,1-2.22-4.92,6.848,6.848,0,0,1,6.968-6.722,6.848,6.848,0,0,1,6.966,6.722,6.6,6.6,0,0,1-2.179,4.883Z" transform="translate(7653.193 3337)"/></svg>