<svg xmlns="http://www.w3.org/2000/svg" width="19" height="22" viewBox="0 0 19 22"><defs><style>.a{fill:#fff;}.b,.c{stroke:none;}.c{fill:#f29d35;}</style></defs><g class="a"><path class="b" d="M 16.67312622070312 20.5 L 2.338703393936157 20.5 L 6.116340160369873 12.26764011383057 L 6.576749801635742 11.26430034637451 L 5.755670070648193 10.52639007568359 C 4.645120143890381 9.528340339660645 4.033510208129883 8.177390098571777 4.033510208129883 6.722410202026367 C 4.033510208129883 3.84276008605957 6.485970020294189 1.5 9.500450134277344 1.5 C 12.51443004608154 1.5 14.96648979187012 3.84276008605957 14.96648979187012 6.722410202026367 C 14.96648979187012 8.161529541015625 14.36629009246826 9.502169609069824 13.27645969390869 10.49734973907471 L 12.4719295501709 11.23200988769531 L 12.92173957824707 12.22432041168213 L 16.67312622070312 20.5 Z"/><path class="c" d="M 14.34625625610352 19 L 10.65592956542969 10.85900974273682 L 12.26498985290527 9.389690399169922 C 13.03979015350342 8.682169914245605 13.46648979187012 7.734920024871826 13.46648979187012 6.722410202026367 C 13.46648979187012 4.669869899749756 11.68733024597168 3 9.500450134277344 3 C 7.313069820404053 3 5.533510208129883 4.669869899749756 5.533510208129883 6.722410202026367 C 5.533510208129883 7.746180057525635 5.968490123748779 8.700909614562988 6.758309841156006 9.410730361938477 L 8.400480270385742 10.88654041290283 L 4.677401065826416 19 L 14.34625625610352 19 M 19 22 L 0 22 L 4.7530198097229 11.64204978942871 C 3.38755989074707 10.41491031646729 2.533509969711304 8.664739608764648 2.533509969711304 6.722410202026367 C 2.533509969711304 3.009550094604492 5.652029991149902 -1.77635683940025e-15 9.500450134277344 -1.77635683940025e-15 C 13.3479700088501 -1.77635683940025e-15 16.46648979187012 3.009550094604492 16.46648979187012 6.722410202026367 C 16.46648979187012 8.645480155944824 15.6296501159668 10.37981986999512 14.28792953491211 11.60501956939697 L 19 22 Z"/></g></svg>