<svg xmlns="http://www.w3.org/2000/svg" width="88.815" height="26.086" viewBox="0 0 88.815 26.086"><defs><style>.a{fill:#fff;}</style></defs><path class="a" d="M10.846.264A17.275,17.275,0,0,1,7.269-.105,15.338,15.338,0,0,1,3.981-1.187,12.61,12.61,0,0,1,1.23-2.9L3.463-6.873A10.813,10.813,0,0,0,6.873-5a12.23,12.23,0,0,0,3.973.659,7,7,0,0,0,3.656-.8A2.514,2.514,0,0,0,15.8-7.4v-.018a2.223,2.223,0,0,0-.58-1.617,3.446,3.446,0,0,0-1.512-.879,18.316,18.316,0,0,0-2.391-.51.308.308,0,0,0-.1-.018.308.308,0,0,1-.1-.018l-.387-.053a23.752,23.752,0,0,1-4.254-1.011,6.263,6.263,0,0,1-2.865-2.127,6.914,6.914,0,0,1-1.178-4.315v-.018a7.787,7.787,0,0,1,1.107-4.236A6.989,6.989,0,0,1,6.768-24.9a12.681,12.681,0,0,1,5.1-.923,12.979,12.979,0,0,1,2.8.316,15.214,15.214,0,0,1,2.8.914,15.641,15.641,0,0,1,2.6,1.441l-2.039,4.078a12.93,12.93,0,0,0-3.085-1.582,9.335,9.335,0,0,0-3.085-.562,6.685,6.685,0,0,0-3.428.729,2.275,2.275,0,0,0-1.213,2.048v.018a2.382,2.382,0,0,0,.633,1.749,3.775,3.775,0,0,0,1.564.94,24.862,24.862,0,0,0,2.619.633,1.185,1.185,0,0,0,.141.026,1.186,1.186,0,0,1,.141.026,2.048,2.048,0,0,1,.2.044,2.047,2.047,0,0,0,.2.044,21.374,21.374,0,0,1,4.052,1.151,6.309,6.309,0,0,1,2.716,2.18,6.866,6.866,0,0,1,1.09,4.1v.035A7.452,7.452,0,0,1,19.441-3.3,7.142,7.142,0,0,1,16.11-.65,13.636,13.636,0,0,1,10.846.264Zm23.136,0a9.967,9.967,0,0,1-4.9-1.169,8.131,8.131,0,0,1-3.278-3.3,10.2,10.2,0,0,1-1.16-4.948V-16.4a10.2,10.2,0,0,1,1.16-4.948,8.131,8.131,0,0,1,3.278-3.3,9.967,9.967,0,0,1,4.9-1.169,9.967,9.967,0,0,1,4.9,1.169,8.131,8.131,0,0,1,3.278,3.3,10.2,10.2,0,0,1,1.16,4.948v7.242a10.2,10.2,0,0,1-1.16,4.948,8.131,8.131,0,0,1-3.278,3.3A9.967,9.967,0,0,1,33.982.264Zm0-4.816a4.582,4.582,0,0,0,2.285-.554A3.786,3.786,0,0,0,37.788-6.68a4.987,4.987,0,0,0,.536-2.355v-7.488a4.987,4.987,0,0,0-.536-2.355,3.786,3.786,0,0,0-1.521-1.573,4.582,4.582,0,0,0-2.285-.554,4.582,4.582,0,0,0-2.285.554,3.786,3.786,0,0,0-1.521,1.573,4.987,4.987,0,0,0-.536,2.355v7.488a4.987,4.987,0,0,0,.536,2.355A3.786,3.786,0,0,0,31.7-5.106,4.582,4.582,0,0,0,33.982-4.553Zm17.88-5.432L62.111-25.559h6.064L52.478-3.727Zm-2.9-15.574h4.816V0H48.962Zm7.154,12.621,4.148-2.619L69.247,0H63.534Zm24.6,13.2a9.967,9.967,0,0,1-4.9-1.169,8.131,8.131,0,0,1-3.278-3.3,10.2,10.2,0,0,1-1.16-4.948V-16.4a10.2,10.2,0,0,1,1.16-4.948,8.131,8.131,0,0,1,3.278-3.3,9.967,9.967,0,0,1,4.9-1.169,9.967,9.967,0,0,1,4.9,1.169,8.131,8.131,0,0,1,3.278,3.3,10.2,10.2,0,0,1,1.16,4.948v7.242a10.2,10.2,0,0,1-1.16,4.948,8.131,8.131,0,0,1-3.278,3.3A9.967,9.967,0,0,1,80.712.264Zm0-4.816A4.582,4.582,0,0,0,83-5.106,3.786,3.786,0,0,0,84.517-6.68a4.987,4.987,0,0,0,.536-2.355v-7.488a4.987,4.987,0,0,0-.536-2.355A3.786,3.786,0,0,0,83-20.452a4.582,4.582,0,0,0-2.285-.554,4.582,4.582,0,0,0-2.285.554,3.786,3.786,0,0,0-1.521,1.573,4.987,4.987,0,0,0-.536,2.355v7.488a4.987,4.987,0,0,0,.536,2.355,3.786,3.786,0,0,0,1.521,1.573A4.582,4.582,0,0,0,80.712-4.553Z" transform="translate(-1.23 25.822)"/></svg>